<svg width="125" height="134" viewBox="0 0 125 134" xmlns="http://www.w3.org/2000/svg"><title>Group 2</title><g fill="none" fill-rule="evenodd"><path d="M65.589-.63a.382.382 0 0 1-.248.479 6.656 6.656 0 0 1-3.37.17 6.85 6.85 0 0 1-2.95-1.438.376.376 0 0 1-.047-.54.376.376 0 0 1 .541-.047A5.914 5.914 0 0 0 65.11-.893c.2-.062.417.046.479.263zm-1.221-18.612c.788.232 1.422.958 1.653 1.917.047.17.201.294.371.294.031 0 .062 0 .093-.016.2-.046.34-.263.278-.464-.293-1.22-1.128-2.164-2.194-2.473a.39.39 0 0 0-.48.263c-.03.2.078.417.279.479zm6.197 8.734v.03c0 .016 0 .032-.015.047-.031.217-.124.696-.34 1.407a16.709 16.709 0 0 1-1.098 2.69c-.633 1.252-1.267 2.195-1.947 2.89-.71.742-1.484 1.237-2.38 1.515a4.95 4.95 0 0 1-1.484.232c-1.746 0-2.89-.974-3.044-1.097-1.7-1.484-2.612-3.68-2.998-4.622l-.047-.124c-.293-.711-1.252-3.23-1.653-4.282l-.016-.015v-.016c0-.015-.015-.03-.015-.046a2.64 2.64 0 0 1-.109-.325c-.092-.464.109-.742.232-.866a.975.975 0 0 1 .68-.293c.186 0 .557.062.866.479.247.34 1.066 1.561 1.638 2.411l-1.422-4.915a3.785 3.785 0 0 1-.124-.557 1.23 1.23 0 0 1 .016-.417.894.894 0 0 1 .525-.665.917.917 0 0 1 .356-.077c.185 0 .556.062.834.479.093.14.17.294.232.433.016.015.016.046.031.062v.031l1.917 4.266-1.113-5.194a3.049 3.049 0 0 1-.108-.742c0-.185.046-.355.123-.51a.818.818 0 0 1 .526-.433.97.97 0 0 1 .293-.046c.201 0 .588.077.866.54.093.155.17.34.293.665.109.325.943 2.69 1.561 4.499a234.157 234.157 0 0 1-.571-3.617c0-.031-.016-.062-.016-.109-.03-.216-.062-.417-.03-.602.046-.48.355-.82.803-.897.046 0 .093-.016.139-.016.216 0 .618.078.896.572.093.17.155.34.217.526l.015.062c.124.355 1.576 4.977 2.226 7.064l1.251-1.22.047-.047c.216-.217.572-.572 1.05-.572.124 0 .233.015.34.062a1 1 0 0 1 .634.88c-.03.186-.061.356-.077.48zm-.865-.65c-.016 0-.047-.015-.062-.015-.201 0-.448.294-.557.402l-1.653 1.623-.016.016-1.777 1.747a.362.362 0 0 1-.263.108.4.4 0 0 1-.278-.108.374.374 0 0 1 0-.542l1.576-1.545c-.355-1.16-2.21-7.018-2.333-7.42-.108-.31-.201-.619-.387-.619h-.03c-.201.031-.155.325-.093.742.03.232.912 5.658.912 5.658l-1.113.356s-2.086-6.014-2.256-6.54c-.17-.478-.279-.695-.433-.695-.016 0-.031 0-.062.016-.155.046-.14.247-.015.788l1.468 6.863-1.128.356-2.612-5.797c-.124-.247-.248-.54-.402-.54-.016 0-.047 0-.062.015-.139.061-.046.448.031.695l1.762 6.06-1.128.37s-1.824-2.72-2.195-3.26c-.046-.063-.14-.155-.232-.155a.189.189 0 0 0-.139.061c-.077.078.031.34.077.449v.015c.31.835 1.33 3.54 1.639 4.251l.046.124c.37.896 1.236 2.983 2.797 4.344.047.046 1.036.912 2.535.912.386 0 .803-.062 1.252-.201 1.514-.48 2.673-1.685 3.863-4.02 1.098-2.164 1.314-3.601 1.376-3.926.015-.216.093-.51-.108-.587zm-9.273 145.804a.382.382 0 0 1 .247-.48c.65-.2 1.33-.309 2.01-.309.463 0 .911.047 1.36.14a6.85 6.85 0 0 1 2.951 1.437c.17.14.185.386.046.541a.376.376 0 0 1-.54.046 5.914 5.914 0 0 0-5.595-1.113.404.404 0 0 1-.48-.262zm1.205 18.596c-.788-.232-1.422-.958-1.653-1.917a.395.395 0 0 0-.371-.294c-.031 0-.062 0-.093.016-.2.046-.34.263-.278.464.293 1.22 1.128 2.164 2.194 2.473a.39.39 0 0 0 .48-.263.414.414 0 0 0-.279-.479zm-6.182-8.734v-.03c0-.016 0-.032.016-.047.03-.217.123-.696.34-1.407.263-.866.633-1.778 1.097-2.69.634-1.252 1.267-2.195 1.947-2.89.711-.742 1.484-1.237 2.38-1.515a4.95 4.95 0 0 1 1.484-.232c1.746 0 2.89.974 3.045 1.097 1.7 1.484 2.612 3.68 2.998 4.622l.046.124c.294.711 1.252 3.23 1.654 4.282l.015.015v.016c0 .015.016.03.016.046.03.078.077.201.108.325.093.464-.108.742-.232.866a.975.975 0 0 1-.68.293c-.185 0-.556-.062-.865-.479-.248-.34-1.067-1.561-1.639-2.411l1.422 4.915c.047.14.093.356.124.557a1.23 1.23 0 0 1-.015.417.894.894 0 0 1-.526.665.917.917 0 0 1-.355.077c-.186 0-.557-.062-.835-.479a2.953 2.953 0 0 1-.232-.433c-.015-.015-.015-.046-.03-.062v-.031l-1.917-4.266 1.113 5.194c.077.31.108.541.108.742 0 .185-.047.355-.124.51a.818.818 0 0 1-.525.433.97.97 0 0 1-.294.046c-.2 0-.587-.077-.865-.54-.093-.155-.17-.34-.294-.665-.108-.325-.943-2.69-1.56-4.499.262 1.592.555 3.478.57 3.617 0 .031.016.062.016.109.031.216.062.417.031.602-.046.48-.355.82-.803.897-.047 0-.093.016-.14.016-.216 0-.618-.078-.896-.572a3.13 3.13 0 0 1-.216-.526l-.016-.062a928.666 928.666 0 0 1-2.225-7.064l-1.252 1.22-.046.047c-.217.217-.572.572-1.051.572a.832.832 0 0 1-.34-.062 1.001 1.001 0 0 1-.634-.88c.016-.186.046-.356.077-.48zm.866.665c.015 0 .046.015.062.015.2 0 .448-.293.556-.402l1.654-1.623.015-.015 1.777-1.747a.362.362 0 0 1 .263-.108c.093 0 .201.03.278.108a.374.374 0 0 1 0 .541l-1.576 1.546c.355 1.16 2.21 7.018 2.334 7.42.108.309.2.618.386.618h.03c.202-.03.155-.324.094-.742-.031-.232-.912-5.658-.912-5.658l1.113-.355s2.086 6.013 2.256 6.539c.17.479.278.695.433.695.015 0 .03 0 .061-.015.155-.046.14-.247.016-.788l-1.468-6.864 1.128-.356 2.612 5.797c.123.248.247.541.402.541.015 0 .046 0 .061-.015.14-.062.047-.448-.03-.696l-1.762-6.06 1.128-.37s1.824 2.72 2.194 3.261c.047.062.14.155.232.155a.189.189 0 0 0 .14-.062c.077-.077-.032-.34-.078-.448v-.016c-.309-.834-1.329-3.54-1.638-4.25l-.046-.124c-.371-.897-1.237-2.984-2.798-4.344-.046-.047-1.035-.912-2.534-.912-.387 0-.804.062-1.252.2-1.515.48-2.674 1.686-3.864 4.02-1.097 2.164-1.314 3.602-1.375 3.926-.031.201-.109.51.108.588zm70.319-76.689a.382.382 0 0 1-.48-.247c-.2-.65-.308-1.33-.308-2.01 0-.464.046-.912.139-1.36a6.853 6.853 0 0 1 1.437-2.953.376.376 0 0 1 .54-.046c.17.139.186.386.047.54a5.919 5.919 0 0 0-1.113 5.596.39.39 0 0 1-.262.48zm18.607-1.206c-.232.789-.958 1.422-1.916 1.654a.395.395 0 0 0-.294.371c0 .031 0 .062.016.093.046.201.262.34.463.278 1.221-.293 2.164-1.128 2.473-2.195a.39.39 0 0 0-.263-.479.406.406 0 0 0-.479.278zm-8.732 6.184h-.03c-.016 0-.032 0-.047-.016-.216-.03-.695-.124-1.406-.34a16.7 16.7 0 0 1-2.69-1.098c-1.251-.633-2.194-1.267-2.89-1.947-.741-.711-1.236-1.484-1.514-2.38a4.953 4.953 0 0 1-.232-1.485c0-1.747.974-2.89 1.097-3.045 1.484-1.7 3.679-2.613 4.621-2.999l.124-.046c.71-.294 3.23-1.253 4.28-1.654l.016-.016h.016c.015 0 .03-.015.046-.015.077-.031.201-.078.325-.109.463-.092.742.109.865.232a.976.976 0 0 1 .294.68c0 .186-.062.557-.48.866-.34.247-1.56 1.067-2.41 1.639l4.914-1.422c.14-.047.356-.093.557-.124a1.23 1.23 0 0 1 .417.015c.31.062.541.248.665.526a.917.917 0 0 1 .077.355c0 .186-.062.557-.48.835-.138.093-.293.17-.432.232-.015.016-.046.016-.062.031h-.031l-4.265 1.917 5.193-1.113c.309-.077.54-.108.741-.108.186 0 .356.046.51.123a.82.82 0 0 1 .433.526.97.97 0 0 1 .047.294c0 .2-.078.587-.541.865-.155.093-.34.17-.665.294-.324.108-2.689.943-4.497 1.561 1.592-.263 3.477-.556 3.616-.572.031 0 .062-.015.108-.015.217-.031.418-.062.603-.031.48.046.82.355.896.804 0 .046.016.093.016.139 0 .216-.077.618-.572.896a3.13 3.13 0 0 1-.525.217l-.062.015c-.356.124-4.977 1.577-7.063 2.226l1.22 1.252.047.047c.217.216.572.572.572 1.051a.832.832 0 0 1-.062.34 1 1 0 0 1-.88.634 2.816 2.816 0 0 1-.48-.077zm.65-.866c0-.016.015-.046.015-.062 0-.2-.294-.448-.402-.556l-1.623-1.654-.015-.016-1.747-1.778a.362.362 0 0 1-.108-.262.4.4 0 0 1 .108-.279.373.373 0 0 1 .541 0l1.546 1.577c1.159-.355 7.016-2.21 7.418-2.334.31-.108.618-.201.618-.387v-.03c-.03-.201-.324-.155-.742-.093-.231.03-5.656.912-5.656.912l-.355-1.113s6.011-2.087 6.537-2.257c.479-.17.695-.278.695-.433 0-.015 0-.03-.015-.062-.046-.154-.247-.139-.788-.015l-6.862 1.468-.356-1.128 5.796-2.613c.247-.123.54-.247.54-.402 0-.015 0-.046-.015-.061-.061-.14-.448-.047-.695.03l-6.058 1.763-.371-1.129s2.72-1.824 3.26-2.195c.062-.046.155-.139.155-.232a.189.189 0 0 0-.062-.139c-.077-.077-.34.031-.448.078h-.015c-.835.309-3.54 1.329-4.25 1.638l-.124.047c-.896.37-2.983 1.236-4.343 2.797-.046.047-.912 1.036-.912 2.536 0 .386.062.803.201 1.252.48 1.515 1.685 2.674 4.019 3.864 2.163 1.098 3.6 1.314 3.925 1.376.201.031.51.093.587-.108zM-.636 63.32a.382.382 0 0 1 .48.247c.2.65.308 1.33.308 2.01 0 .464-.046.912-.139 1.36a6.853 6.853 0 0 1-1.437 2.953.376.376 0 0 1-.54.046.376.376 0 0 1-.047-.541A5.919 5.919 0 0 0-.897 63.8a.379.379 0 0 1 .262-.48zm-18.607 1.206c.232-.789.958-1.422 1.916-1.654a.395.395 0 0 0 .294-.371c0-.031 0-.062-.016-.093-.046-.201-.262-.34-.463-.278-1.221.293-2.164 1.128-2.473 2.195a.39.39 0 0 0 .263.479.4.4 0 0 0 .479-.278zm8.732-6.184h.03c.016 0 .032 0 .047.016.216.03.695.123 1.406.34a16.7 16.7 0 0 1 2.69 1.097c1.251.634 2.194 1.268 2.89 1.948.741.711 1.236 1.484 1.514 2.38.155.495.232.99.232 1.485 0 1.747-.974 2.89-1.097 3.045-1.484 1.7-3.679 2.612-4.621 2.999l-.124.046c-.71.294-3.23 1.252-4.28 1.654l-.016.016h-.016c-.015 0-.03.015-.046.015a2.459 2.459 0 0 1-.325.108c-.463.093-.742-.108-.865-.231a.976.976 0 0 1-.294-.68c0-.186.062-.557.48-.866.34-.248 1.56-1.067 2.41-1.639l-4.914 1.422c-.14.047-.356.093-.557.124a1.23 1.23 0 0 1-.417-.015.894.894 0 0 1-.665-.526.917.917 0 0 1-.077-.356c0-.185.062-.556.48-.834.138-.093.293-.17.432-.232.015-.016.046-.016.062-.031h.031l4.265-1.917-5.193 1.113c-.309.077-.54.108-.741.108a1.13 1.13 0 0 1-.51-.123.818.818 0 0 1-.433-.526.97.97 0 0 1-.047-.294c0-.2.078-.587.541-.865.155-.093.34-.17.665-.294.324-.108 2.689-.943 4.497-1.561-1.592.262-3.477.556-3.616.572-.031 0-.062.015-.108.015-.217.031-.418.062-.603.031-.48-.046-.82-.356-.896-.804 0-.046-.016-.093-.016-.139 0-.216.077-.618.572-.897.17-.092.34-.154.525-.216l.062-.015c.356-.124 4.977-1.577 7.063-2.226l-1.22-1.253-.047-.046c-.217-.216-.572-.572-.572-1.051a.82.82 0 0 1 .062-.34 1 1 0 0 1 .88-.634c.186.031.356.062.48.077zm-.65.866c0 .015-.015.046-.015.062 0 .2.294.448.402.556l1.623 1.654.015.016 1.747 1.778c.077.077.108.17.108.262a.4.4 0 0 1-.108.279.373.373 0 0 1-.541 0l-1.546-1.577c-1.159.355-7.016 2.21-7.418 2.334-.31.108-.618.201-.618.387v.03c.03.201.324.155.742.093.231-.03 5.656-.912 5.656-.912l.355 1.113s-6.011 2.087-6.537 2.257c-.479.17-.695.278-.695.433 0 .015 0 .03.015.062.046.154.247.139.788.015l6.862-1.468.356 1.128-5.796 2.613c-.247.123-.54.247-.54.401 0 .016 0 .047.015.062.061.14.448.047.695-.03l6.058-1.763.371 1.129s-2.72 1.824-3.26 2.195c-.062.046-.155.139-.155.232 0 .046.015.092.062.139.077.077.34-.031.448-.078h.015c.835-.309 3.54-1.329 4.25-1.638l.124-.047c.896-.37 2.983-1.236 4.343-2.798.046-.046.912-1.035.912-2.535a4.22 4.22 0 0 0-.201-1.252c-.48-1.515-1.685-2.674-4.019-3.864-2.163-1.098-3.6-1.314-3.925-1.376-.216-.016-.51-.093-.587.108z"/><path d="M64.583 133.998c3.519 0 6.915-2.588 8.129-6.461l3.411-10.815c.323-.992-.26-2.107-1.244-2.433-.845-.263-1.752.109-2.228.852-3.181 5.315-5.963 8.01-7.73 8.677-.03-.108-.03-.263-.03-.372 0-4.911 3.764-10.303 8.635-10.303.692 0 1.43.077 2.229.372.983.294 2.09-.264 2.412-1.255.292-.992-.261-2.108-1.245-2.433a11.612 11.612 0 0 0-3.411-.511c-6.623 0-12.524 7.204-12.524 14.254 0 3.58 1.875 4.4 3.258 4.4 1.537 0 3.288-.991 5.716-3.873l-.691 2.293c-.692 2.185-2.52 3.796-4.687 3.796-.876 0-1.829-.263-2.597-.806-.799-.635-2.044-.402-2.643.45-.63.805-.4 2.06.446 2.665 1.352.945 3.196 1.503 4.794 1.503zm-53.752-11.884c0-1.953-.953-3.796-2.044-5.175-.63-.775-1.276-1.658-1.276-2.665 0-.775.661-1.41 1.568-1.41.507 0 1.06.217 1.567.666.768.589 1.906.45 2.52-.325.584-.775.446-1.922-.322-2.541-1.245-.961-2.674-1.41-3.888-1.41-2.935 0-5.27 2.138-5.27 5.02 0 1.89.921 3.579 2.043 5.02.584.775 1.245 1.766 1.245 2.882 0 1.177-.846 2.138-1.937 2.138-.737 0-1.352-.403-1.798-1.038-.583-.775-1.751-.96-2.52-.403-.768.589-.952 1.766-.4 2.54 1.169 1.581 2.89 2.511 4.718 2.511 3.089.015 5.794-2.34 5.794-5.81zm75.22 0c0-1.953-.954-3.796-2.045-5.175-.63-.775-1.275-1.658-1.275-2.665 0-.775.553-1.41 1.322-1.41.445 0 .952.155 1.429.558.768.588 1.905.449 2.52-.326.584-.775.445-1.921-.323-2.54-1.214-.93-2.52-1.287-3.626-1.287-2.859 0-5.133 2.138-5.133 5.02 0 1.89.953 3.58 2.09 5.02.584.775 1.214 1.767 1.214 2.882 0 1.178-.845 2.138-1.982 2.138-.738 0-1.46-.449-1.906-1.069-.584-.774-1.752-.96-2.52-.403-.768.59-.953 1.767-.4 2.541 1.168 1.58 2.997 2.541 4.841 2.541 3.073 0 5.793-2.355 5.793-5.825zm-28.199 4.137l3.043-9.607c.692-2.184.876-3.098.876-3.95 0-2.061-1.46-3.208-3.15-3.208-2.382 0-4.902 2.247-8.098 7.313l1.429-4.54c.292-.93-.262-1.998-1.168-2.324-.922-.294-2.013.264-2.305 1.224l-3.289 10.335-1.137 3.58c-.445 1.363.63 2.51 1.829 2.51.584 0 1.09-.295 1.506-.853 4.502-6.724 7.914-11.078 10.219-12.628-.077.372-.185.806-.37 1.364l-3.042 9.606c-.323.992.261 2.107 1.245 2.433.983.294 2.074-.264 2.412-1.255zm-27.137 0l.953-2.913c1.69-4.943 4.579-8.46 8.236-10.01.984-.449 1.46-1.626 1.06-2.618-.445-.992-1.613-1.472-2.596-1.069-1.506.589-2.705 1.89-3.919 4.245l.507-1.626c.292-.93-.261-2-1.168-2.325-.922-.294-2.013.264-2.305 1.224l-2.52 7.902-1.905 6.012c-.323.992.261 2.107 1.244 2.433.984.294 2.09-.264 2.413-1.255zm83.594 0l.953-2.96c1.69-4.88 4.61-8.382 8.39-9.962 1.091-.48 1.614-1.58 1.214-2.619-.445-.992-1.72-1.472-2.75-1.069-1.614.62-2.905 2.014-4.15 4.493l.585-1.89c.292-.93-.262-1.999-1.168-2.324-.922-.294-2.013.263-2.305 1.224l-2.52 7.902-1.906 6.012c-.323.991.261 2.107 1.245 2.432.983.31 2.09-.248 2.412-1.24zm-101.127 6.414l1.69-5.314c2.49-7.02 6.67-13.248 9.773-13.852.077.263.108.48.108.744 0 3.873-3.412 9.126-6.808 9.9-1.03.217-1.69 1.286-1.46 2.294.216 1.038 1.276 1.704 2.275 1.471 4.902-1.1 9.819-8.04 9.819-13.851 0-3.44-1.644-4.57-3.442-4.57-1.982 0-4.026 1.44-6.008 3.981l.368-1.224c.292-.93-.26-1.999-1.214-2.324-.922-.294-2.013.263-2.305 1.224l-3.657 11.512-2.797 8.832c-.292.991.262 2.107 1.245 2.432.984.295 2.09-.248 2.413-1.255zm95.196-19.972c.077 0 .184 0 .261.031.03.155.077.326.077.512 0 2.324-2.643 4.09-5.532 5.097.953-3.052 2.92-5.64 5.194-5.64zM91.352 127.94c1.429 0 3.55-.635 5.962-4.136.584-.884.369-2.108-.476-2.696-.876-.59-2.09-.372-2.674.48-.769 1.146-1.46 1.89-2.09 2.293 0-.372.077-.775.184-1.147l2.935-9.265h3.842c.983 0 1.829-.852 1.829-1.813 0-.96-.846-1.813-1.829-1.813H96.33l1.43-4.508c.322-.992-.262-2.108-1.245-2.433-.984-.294-2.09.264-2.413 1.255l-1.798 5.702h-1.321c-.984 0-1.829.852-1.829 1.813 0 .96.845 1.813 1.829 1.813h.184l-2.673 8.413c-.37 1.1-.508 2.138-.508 2.773 0 1.983 1.276 3.27 3.366 3.27zm-46.53-18.02c-.984-.293-2.09.264-2.413 1.256l-4.395 13.883c-.323.991.261 2.107 1.245 2.432.983.295 2.09-.263 2.412-1.255l4.395-13.883c.323-.991-.261-2.091-1.244-2.432zm58.439 18.02c1.536 0 3.227-.697 5.67-2.881.768-.698.845-1.953.154-2.727-.692-.775-1.936-.853-2.705-.155-1.244 1.146-2.274 1.89-3.227 2.215-.507-.666-.63-1.627-.63-2.401 5.855-1.255 9.82-4.803 9.82-8.46 0-2.324-1.568-4.06-4.134-4.06-4.948 0-9.481 6.09-9.481 13-.016 3.812 2.043 5.47 4.533 5.47zm-57.056-19.971c1.429 0 2.597-1.178 2.597-2.665 0-1.441-1.168-2.619-2.597-2.619-1.46 0-2.644 1.178-2.644 2.619.016 1.487 1.184 2.665 2.644 2.665zM78.198 13.47a1.91 1.91 0 0 1-1.813-1.317c-.062-.17-.108-.326-.17-.496l-.015-.031c-.292-.883-.645-1.999-1.244-3.099-1.399-2.557-3.735-4.26-6.408-4.68-1.045-.154-1.768-1.146-1.614-2.2A1.926 1.926 0 0 1 69.116.022c3.873.589 7.223 3.006 9.19 6.631.783 1.426 1.229 2.836 1.52 3.765l.016.047c.046.155.092.294.154.45a1.938 1.938 0 0 1-1.199 2.447 1.528 1.528 0 0 1-.6.109zM73.68 97.292a48.4 48.4 0 0 0 2.105-.743 1.945 1.945 0 0 0 1.091-2.51 1.919 1.919 0 0 0-2.49-1.1c-.614.232-1.244.464-1.874.666a28.182 28.182 0 0 1-8.544 1.348c-9.942 0-16.488-5.423-17.717-6.523a48.898 48.898 0 0 1-1.614-1.503 1.923 1.923 0 0 0-2.72.03c-.737.76-.722 1.984.031 2.743a56.682 56.682 0 0 0 1.752 1.643c1.398 1.255 8.912 7.483 20.253 7.483 3.273 0 6.546-.527 9.727-1.534zm26.446-50.495c-.015.062-.015.109-.03.17-.016.063-.031.14-.047.233-.184 1.054-.6 3.533-1.66 7.08-1.306 4.34-3.15 8.894-5.485 13.496-3.181 6.275-6.347 11.016-9.681 14.518-3.535 3.703-7.407 6.182-11.848 7.608-2.443.774-4.933 1.177-7.391 1.177-8.713 0-14.414-4.865-15.167-5.547-8.436-7.452-12.985-18.5-14.936-23.21l-.246-.62c-1.506-3.64-7.868-20.591-8.13-21.304-.03-.077-.06-.17-.107-.263-.215-.558-.522-1.317-.66-2.2-.323-2.077.506-3.982 2.181-4.99a4.635 4.635 0 0 1 2.367-.666c.937 0 2.32.295 3.611 1.658.476.512.845 1.054 1.137 1.488.077.124.154.232.215.325.554.79 4.641 6.864 7.53 11.187l-7.13-24.744c-.03-.093-.062-.186-.092-.295-.23-.743-.507-1.658-.584-2.65-.17-2.4 1.09-4.384 3.211-5.066a4.715 4.715 0 0 1 1.46-.232c.938 0 2.735.31 4.165 2.34.491.697.86 1.487 1.198 2.169.046.093.077.17.123.263l.03.047.016.046 9.374 21.118-5.548-25.983c-.384-1.658-.583-2.743-.583-3.734.015-2.774 1.767-4.277 3.396-4.757a4.72 4.72 0 0 1 1.383-.201c1.06 0 3.027.372 4.394 2.866.446.821.8 1.797 1.307 3.192.568 1.611 4.671 13.526 7.76 22.56-1.276-7.98-2.782-17.447-2.874-18.19-.03-.202-.046-.388-.077-.574-.138-1.054-.276-2.045-.169-3.052.23-2.293 1.706-3.967 3.842-4.385.307-.062.615-.093.907-.093.845 0 2.965.263 4.333 2.758.43.775.691 1.611.953 2.417.061.186.123.387.184.589.615 1.812 7.837 24.96 11.095 35.419l6.208-6.136.015-.015.016-.016c.061-.046.123-.124.2-.201 1.06-1.07 2.811-2.866 5.24-2.866.583 0 1.152.108 1.674.31 1.798.697 2.966 2.355 3.12 4.43.077 1.054-.092 1.937-.2 2.526zM75.939 62.074c-.4.341-.86.558-1.352.558-.492 0-1-.186-1.368-.573a1.947 1.947 0 0 1 .03-2.743l7.515-7.437C78.966 46.1 69.777 16.63 69.116 14.647c-.522-1.565-.876-3.145-1.844-3.145-.061 0-.123 0-.184.015-1.091.217-.784 1.658-.523 3.719.139 1.146 4.518 28.385 4.518 28.385l-5.547 1.813S55.179 15.22 54.256 12.633c-.845-2.37-1.275-3.502-2.074-3.502-.092 0-.2.016-.292.047-.876.263-.753 1.27-.153 3.935l7.345 34.412-5.563 1.844-12.846-28.943c-.6-1.27-1.168-2.587-2.029-2.587-.092 0-.184.015-.292.046-1.014.326-.4 1.984-.03 3.208l8.758 30.383-5.654 1.86s-9.497-14.177-10.311-15.324c-.554-.775-1.138-1.844-1.844-1.844a.717.717 0 0 0-.415.124c-.8.48-.077 1.922.23 2.743 0 0 6.577 17.554 8.083 21.18l.261.62c1.844 4.478 6.162 14.952 13.938 21.8.246.232 5.132 4.57 12.616 4.57 1.92 0 4.01-.278 6.239-.99 7.56-2.418 13.322-8.445 19.27-20.19 5.5-10.861 6.546-18.097 6.837-19.724.154-.836.508-2.386-.491-2.773a.958.958 0 0 0-.292-.046c-.968 0-2.26 1.471-2.782 1.983L75.94 62.075z" fill="#7300FF" fill-rule="nonzero" class="icon"/></g></svg>