<svg width="98" height="75" viewBox="0 0 98 75" xmlns="http://www.w3.org/2000/svg"><title>Springster_Stickers_Hands_Fist_Bump_Sunny_Yellow</title><g fill="none"><path d="M71.722 61.79c-5.492 0-10.807-1.371-14.986-3.871a4.018 4.018 0 0 1-.243-.153c-1.35-.253-2.663-.609-3.542-.951-1.708-.673-3.059-1.752-3.926-3.122-.879 1.358-2.217 2.436-3.925 3.096-.879.343-2.192.698-3.542.952-.077.05-.166.114-.243.152-4.18 2.488-9.494 3.871-14.986 3.871-3.492 0-6.882-.533-10.068-1.599-6.97-2.322-12.157-6.916-14.617-12.944C-.841 41.193-.268 34.239 3.25 27.665c3.033-5.673 7.965-10.558 13.546-13.388 3.773-1.917 7.15-2.843 10.323-2.843 1.07 0 2.128.114 3.148.33 4.256.914 7.276 3.63 9.29 5.863 2.561.266 5.11 1.485 7.226 3.439a9.486 9.486 0 0 1 2.242 3.185 9.315 9.315 0 0 1 2.243-3.172c2.116-1.955 4.677-3.173 7.226-3.44 2.014-2.233 5.034-4.949 9.29-5.862 1.02-.216 2.078-.33 3.148-.33 3.173 0 6.55.926 10.323 2.842 5.581 2.83 10.513 7.716 13.546 13.389 3.505 6.573 4.078 13.515 1.619 19.568-2.46 6.028-7.647 10.622-14.617 12.944-3.2 1.066-6.576 1.6-10.08 1.6zM48.618 68.4c-.778 0-1.402.622-1.402 1.396v3.769c0 .774.624 1.396 1.402 1.396.777 0 1.402-.622 1.402-1.396v-3.769c0-.774-.638-1.396-1.402-1.396zm9.723 3.312a1.397 1.397 0 0 1-2.421 1.396l-1.886-3.261a1.397 1.397 0 0 1 .51-1.904 1.409 1.409 0 0 1 1.911.508l1.886 3.261zm7.213-1.941a1.397 1.397 0 0 1-1.911.507L60.367 68.4a1.378 1.378 0 0 1-.51-1.904 1.39 1.39 0 0 1 1.912-.507l3.275 1.878a1.38 1.38 0 0 1 .51 1.904zM43.52 69.72l-1.886 3.261a1.397 1.397 0 0 1-1.912.508 1.378 1.378 0 0 1-.51-1.904l1.887-3.261a1.39 1.39 0 0 1 1.911-.508 1.38 1.38 0 0 1 .51 1.904zm-5.824-3.401a1.397 1.397 0 0 1-.51 1.903L33.9 70.114a1.397 1.397 0 0 1-1.912-.508 1.397 1.397 0 0 1 .51-1.903l3.275-1.878a1.39 1.39 0 0 1 1.924.495zM50.02 1.396v3.769c0 .774-.625 1.396-1.402 1.396a1.395 1.395 0 0 1-1.402-1.396v-3.77C47.216.623 47.84 0 48.618 0c.777 0 1.402.622 1.402 1.396zm4 3.744l1.886-3.262a1.39 1.39 0 0 1 1.912-.507c.675.38.905 1.243.51 1.903l-1.887 3.262a1.397 1.397 0 0 1-2.42-1.396zm5.837 3.35a1.397 1.397 0 0 1 .51-1.904l3.275-1.89a1.409 1.409 0 0 1 1.911.507 1.397 1.397 0 0 1-.51 1.904L61.77 8.985a1.38 1.38 0 0 1-.7.19 1.359 1.359 0 0 1-1.211-.685zM39.2 3.388a1.397 1.397 0 0 1 .51-1.903 1.409 1.409 0 0 1 1.911.507l1.886 3.262a1.397 1.397 0 0 1-2.42 1.396L39.2 3.388zm-7.213 1.993a1.39 1.39 0 0 1 1.912-.508l3.275 1.878c.675.381.905 1.244.51 1.904a1.397 1.397 0 0 1-1.912.507l-3.275-1.865a1.414 1.414 0 0 1-.51-1.916z" fill="#FFFC78"/><path d="M92.316 28.997c-2.765-5.177-7.264-9.632-12.349-12.208-4.434-2.246-8.232-2.995-11.61-2.271-1.847.393-4.727 1.408-8.334 5.622-.102.126-.216.253-.33.38a1.336 1.336 0 0 0-.676-.114c-2.027.152-4.104 1.13-5.85 2.741a6.668 6.668 0 0 0-1.44 7.83c-1.058 1.27-1.733 3.503-1.618 5.47.063 1.116.37 2.056.917 2.766-.764 1.46-.994 3.147-.611 4.734.19.774.522 1.484.968 2.08-.433 1.22-.828 2.691-.7 4.075.127 1.345.802 3.147 3.3 4.137.726.279 2.14.672 3.797.939.102.152.243.279.408.368 3.823 2.284 8.653 3.464 13.547 3.464 3.11 0 6.244-.482 9.176-1.447 6.18-2.055 10.768-6.09 12.909-11.345 2.141-5.279 1.618-11.396-1.504-17.22zm-37.237-3.82a8.563 8.563 0 0 1 2-1.383c-.879 1.46-1.312 3.046-.382 4.607 1.453 2.437 4.868 2.348 7.608 1.18.255-.114.612-.266 1.045-.47.039.064.09.115.153.166 1.134 1.091 1.81 1.954 1.912 3.147.013.228-.051.317-.102.393-.293.33-1.096.571-2 .61-2.18.076-4.334-.432-6.156-.94-.179-.05-.37-.101-.56-.152-1.428-.393-2.906-.787-3.76-1.726a3.873 3.873 0 0 1 .242-5.431zm10.564 17.437c.434.19 1.135.685 1.326.901.255.482.293.914.076 1.32-.318.622-1.147 1.142-2 1.244-4.282.52-8.067.19-10.387-.889-.994-.47-1.376-1.294-1.529-1.903-.191-.8-.102-1.7.23-2.488 1.554.686 4.052 1.51 7.353 1.79.726.063 1.72.127 2.803.127a30.583 30.583 0 0 0 2.128-.102zm.28-6.37c.32.152.931.634 1.53 1.218.42.406.472.926.382 1.282-.063.279-.267.634-.79.786-1.325.381-3.543.483-6.091.254-4.41-.38-7.213-1.865-7.583-2.144-.267-.216-.446-.724-.484-1.371-.064-1.091.267-2.31.663-3.058 1.3.99 2.867 1.421 4.294 1.802l.535.152c1.772.495 4.078 1.053 6.474 1.053.179 0 .357 0 .536-.012.127 0 .267-.013.42-.026.051.026.09.051.115.064zM53.742 47.83c2.28.99 5.02 1.282 7.455 1.282 1.147 0 2.217-.064 3.135-.153.56.508.892 1.37.79 2.145-.038.292-.153.635-.688.952-2.04 1.193-7.328.38-9.418-.432-1.35-.533-1.975-1.345-1.274-3.794zm37.48-2.678c-1.836 4.493-5.812 7.957-11.203 9.746-5.123 1.701-10.921 1.74-15.853.216a6.275 6.275 0 0 0 1.67-.66c1.16-.672 1.873-1.7 2.051-2.97.153-1.103-.076-2.245-.599-3.223.994-.495 1.81-1.269 2.269-2.182.637-1.257.586-2.678-.166-3.985a2.29 2.29 0 0 0-.357-.47 3.881 3.881 0 0 0 1.517-2.208 4.135 4.135 0 0 0-1.134-3.96c-.115-.113-.268-.253-.42-.405.14-.114.28-.254.407-.394a3.3 3.3 0 0 0 .739-1.421c1.542.914 3.211 1.383 4.932 1.383.7 0 1.414-.076 2.128-.228a1.396 1.396 0 1 0-.599-2.729c-2.32.495-4.486-.114-6.423-1.84a12.292 12.292 0 0 1-1.873-2.132c2.192-1.066 4.397-2.17 4.55-2.246a1.4 1.4 0 0 0 .624-1.878 1.412 1.412 0 0 0-1.886-.622c-.064.038-6.767 3.376-8.411 4.061-1.822.774-3.632.761-4.104-.038-.573-.952 1.045-2.766 2.345-4.239.242-.266.484-.545.714-.812 2.357-2.754 4.46-4.2 6.792-4.695 2.715-.584 5.913.089 9.75 2.03 4.51 2.285 8.678 6.409 11.137 11.04 2.74 5.102 3.225 10.369 1.402 14.861zm-44.553.85a5.795 5.795 0 0 0 .968-2.08c.383-1.574.153-3.275-.611-4.734.535-.71.854-1.65.917-2.767.115-1.98-.56-4.213-1.618-5.47a6.665 6.665 0 0 0-1.44-7.83c-1.746-1.61-3.823-2.575-5.85-2.74a1.488 1.488 0 0 0-.675.114c-.115-.127-.23-.254-.331-.38-3.607-4.214-6.487-5.217-8.335-5.623-3.377-.723-7.175.026-11.61 2.272C13 19.34 8.5 23.794 5.735 28.972 2.625 34.797 2.09 40.914 4.244 46.18c2.14 5.267 6.728 9.29 12.91 11.345 2.93.978 6.065 1.447 9.175 1.447 4.893 0 9.71-1.18 13.546-3.464a1.43 1.43 0 0 0 .408-.368c1.657-.267 3.071-.66 3.798-.94 2.51-.977 3.173-2.791 3.3-4.137.115-1.37-.28-2.842-.713-4.06zm-5.71-22.22a8.514 8.514 0 0 1 2.001 1.383 3.86 3.86 0 0 1 .23 5.431c-.854.94-2.332 1.333-3.76 1.726l-.56.153c-1.81.507-3.964 1.015-6.156.939-.904-.038-1.707-.28-2-.61-.064-.063-.128-.164-.102-.393.102-1.193.777-2.056 1.911-3.147.051-.05.102-.114.153-.165.433.203.79.368 1.045.47 2.74 1.167 6.155 1.243 7.608-1.18.956-1.562.523-3.16-.37-4.607zM18.034 54.886c-5.391-1.79-9.367-5.254-11.202-9.746-1.835-4.493-1.338-9.76 1.376-14.848 2.46-4.62 6.627-8.744 11.138-11.04 3.836-1.955 7.022-2.615 9.75-2.031 2.344.495 4.434 1.954 6.792 4.695.229.267.471.546.713.812 1.3 1.46 2.919 3.275 2.345 4.239-.471.8-2.281.812-4.103.038-1.632-.698-8.335-4.035-8.411-4.06a1.42 1.42 0 0 0-1.886.621 1.408 1.408 0 0 0 .624 1.878c.153.076 2.37 1.18 4.55 2.246-.408.584-1.033 1.396-1.874 2.132-1.95 1.726-4.103 2.348-6.423 1.84a1.408 1.408 0 0 0-1.67 1.066 1.402 1.402 0 0 0 1.071 1.663c.714.152 1.428.228 2.129.228 1.72 0 3.39-.47 4.931-1.383.115.533.37 1.015.74 1.421.127.14.267.267.407.394-.165.152-.305.292-.42.406a4.135 4.135 0 0 0-1.134 3.96c.23.913.764 1.687 1.516 2.207a2.41 2.41 0 0 0-.357.47c-.739 1.307-.802 2.728-.165 3.985.458.913 1.287 1.687 2.28 2.182-.522.978-.764 2.12-.598 3.224.178 1.269.892 2.297 2.052 2.97a6.45 6.45 0 0 0 1.67.66c-4.92 1.51-10.731 1.471-15.841-.23zm25.003-3.274c-2.077.812-7.366 1.624-9.418.431-.535-.304-.65-.647-.688-.952-.115-.774.217-1.637.79-2.144.918.089 1.988.152 3.135.152 2.434 0 5.174-.292 7.455-1.282.688 2.45.064 3.262-1.274 3.795zm1.873-8.35c-.153.609-.535 1.446-1.529 1.903-2.332 1.091-6.117 1.409-10.386.888-.867-.101-1.682-.622-2.001-1.243-.204-.406-.178-.838.076-1.32.192-.216.893-.71 1.326-.901.7.063 1.427.089 2.115.089 1.083 0 2.078-.064 2.804-.127 3.3-.292 5.798-1.104 7.353-1.79.344.8.446 1.7.242 2.5zm.23-6.993c-.039.66-.217 1.168-.485 1.383-.356.267-3.173 1.764-7.582 2.145-2.536.216-4.766.127-6.092-.254a1.099 1.099 0 0 1-.79-.787 1.334 1.334 0 0 1 .382-1.281c.6-.584 1.211-1.066 1.53-1.219.038-.012.063-.038.102-.05.153.012.293.025.42.025.179.013.357.013.535.013 2.396 0 4.703-.559 6.474-1.054l.536-.152c1.427-.38 2.994-.812 4.294-1.802.42.723.74 1.942.676 3.033z" fill="#7300FF"/></g></svg>