<svg width="93" height="82" viewBox="0 0 93 82" xmlns="http://www.w3.org/2000/svg"><title>Springster_Stickers_Hands_Love_Peach</title><g fill="none"><path d="M40.219 68.528h-.422c-2.418-.065-5.232-.648-8.2-1.257-2.341-.48-4.772-.971-6.818-1.166a70.86 70.86 0 0 0-1.65-.142c-3.34-.285-7.113-.61-10.657-1.97-4.285-1.645-7.432-4.481-9.607-8.679A21.612 21.612 0 0 1 .78 49.213a4.076 4.076 0 0 1-.204-.868C-.102 43.202.179 34.989.192 34.639v-.038l.013-.156v-.039c.012-.142 1.317-14.547 1.56-16.827.026-.233.052-.492.064-.764.115-1.374.282-3.265.96-4.962C3.914 9.042 6.28 7.371 9.12 7.371c.128 0 .256 0 .384.013 1.036.052 1.982.31 2.801.764.614-1.282 1.1-2.24 1.459-2.876.46-.816 1.202-2.02 2.328-3.07C17.525.855 19.2.142 20.953.142c.73 0 1.446.13 2.15.376 1.573.557 2.827 1.697 3.569 3.213 1.343-1.062 3.096-2.021 5.078-2.021 1.433 0 2.815.505 3.992 1.45 1.535 1.231 2.366 2.98 2.405 5.079.038 1.697-.435 3.588-1.446 5.764-.537 1.14-1.983 3.835-3.62 6.827h.345c.896 0 1.778.065 2.661.195 3.364.492 6.166 1.917 8.34 4.197a13.983 13.983 0 0 1 2.111 2.902 13.793 13.793 0 0 1 2.124-2.941c2.175-2.293 4.976-3.705 8.34-4.197.87-.13 1.766-.195 2.661-.195h.346c-1.638-2.979-3.096-5.673-3.62-6.826-1.011-2.177-1.484-4.068-1.446-5.765.051-2.086.883-3.847 2.405-5.078 1.19-.946 2.571-1.45 3.991-1.45 1.996 0 3.735.958 5.079 2.02A6.335 6.335 0 0 1 69.987.479a6.473 6.473 0 0 1 2.149-.375c1.752 0 3.428.712 4.86 2.06 1.127 1.049 1.869 2.266 2.329 3.07.358.634.844 1.593 1.458 2.875a6.58 6.58 0 0 1 2.802-.764c.128-.013.256-.013.384-.013 2.84 0 5.206 1.671 6.332 4.482.678 1.697.844 3.589.96 4.962.025.272.038.53.063.764.243 2.28 1.548 16.672 1.56 16.827v.04l.014.155v.039c.012.35.294 8.562-.384 13.705a4.076 4.076 0 0 1-.205.868 21.894 21.894 0 0 1-2.085 6.102c-2.187 4.197-5.322 7.034-9.607 8.679-3.543 1.36-7.317 1.684-10.656 1.969-.55.052-1.113.09-1.65.142-2.047.195-4.477.687-6.818 1.166-2.981.61-5.783 1.192-8.213 1.257h-.422c-3.275 0-5.181-1.088-6.281-2.37-1.139 1.295-3.045 2.409-6.358 2.409zm-7.51-30.818c-.677 0-1.355.194-1.97.57-.792.479-1.368 1.217-1.534 1.969-.985 4.352 1.253 7.565 6.652 9.573 2.38.88 5.73 2.357 8.212 4.391 1.05.868 1.843 1.736 2.431 2.591.588-.868 1.394-1.749 2.456-2.617 2.495-2.046 5.846-3.51 8.213-4.391 5.398-1.995 7.637-5.22 6.652-9.573-.167-.752-.742-1.49-1.535-1.97a3.773 3.773 0 0 0-1.97-.57c-.282 0-.55.04-.806.104-.525.143-1.241.7-1.945 1.244-1.304 1.023-3.287 2.565-5.96 2.565-1.472 0-2.905-.466-4.286-1.4a5.08 5.08 0 0 1-.806-.673 5.52 5.52 0 0 1-.832.713c-1.381.932-2.814 1.399-4.285 1.399-2.674 0-4.657-1.542-5.961-2.565-.691-.544-1.42-1.101-1.945-1.244a2.47 2.47 0 0 0-.78-.116zm15.07 39.005v3.847c0 .79-.627 1.425-1.407 1.425s-1.407-.635-1.407-1.425v-3.847c0-.79.627-1.425 1.407-1.425s1.407.634 1.407 1.425zm8.2 1.956c.384.686.154 1.554-.512 1.943-.217.13-.46.194-.703.194-.486 0-.96-.259-1.215-.712l-1.894-3.33c-.383-.686-.153-1.554.512-1.943a1.401 1.401 0 0 1 1.919.519l1.893 3.329zm7.24-1.97a1.396 1.396 0 0 1-1.215.713c-.243 0-.486-.065-.703-.194l-3.288-1.917a1.42 1.42 0 0 1-.512-1.943 1.382 1.382 0 0 1 1.92-.519l3.287 1.918c.665.388.895 1.256.512 1.943zm-22.117-.051l-1.894 3.33a1.397 1.397 0 0 1-1.215.712c-.243 0-.486-.065-.703-.195a1.42 1.42 0 0 1-.512-1.943l1.893-3.329a1.382 1.382 0 0 1 1.919-.518c.665.388.895 1.256.512 1.943zm-5.86-3.485c.385.687.154 1.555-.51 1.943l-3.289 1.918c-.217.13-.46.194-.703.194-.486 0-.96-.26-1.215-.713-.384-.686-.154-1.554.511-1.943l3.288-1.917a1.401 1.401 0 0 1 1.919.518z" fill="#FCAB85"/><path d="M42.304 56.428c-2.187-1.8-5.232-3.134-7.407-3.938-9.108-3.368-9.197-9.521-8.43-12.876.346-1.516 1.369-2.889 2.827-3.77 1.523-.932 3.34-1.217 4.964-.79 1.074.285 2.021 1.023 2.942 1.749 1.126.88 2.52 1.969 4.247 1.969.832 0 1.74-.26 2.725-.92 1.42-.958 1.445-3.51 1.023-5.389a11.221 11.221 0 0 0-2.789-5.285c-1.726-1.827-3.99-2.954-6.728-3.355-2.827-.415-5.514 0-7.919.803.192-.35.397-.726.614-1.114 2.252-4.094 5.066-9.185 5.795-10.752 1.638-3.51 1.574-5.998-.166-7.397-3.16-2.539-6.588 1.373-7.701 2.669-.525.595-1.19 1.36-1.97 2.254.473-2.267.435-3.964-.115-5.182a3.51 3.51 0 0 0-2.047-1.93c-1.407-.505-2.891-.117-4.17 1.088-.845.79-1.42 1.749-1.791 2.396-.704 1.244-1.932 3.874-3.365 7.048-.294-2.112-1.56-3.394-3.479-3.498-1.817-.09-3.224.868-3.966 2.707-.524 1.296-.652 2.876-.754 4.133-.026.298-.052.57-.077.816-.23 2.228-1.497 16.193-1.56 16.775v.078c-.014.337-.282 8.317.357 13.226.026.156.064.311.128.44.346 1.97.96 3.835 1.868 5.571 4.145 7.954 11.513 8.576 18.012 9.133.562.052 1.125.09 1.675.142 2.2.208 4.708.713 7.126 1.218 2.852.583 5.551 1.14 7.726 1.192h.346c2.788 0 4.426-.959 4.899-2.85.358-1.503.192-3.873-2.84-6.36zM18.626 8.096c.55-.971 1.611-2.552 2.584-2.202.166.052.294.143.409.402.844 1.904-1.139 7.241-2.06 9.495-3.326 3.886-7.023 8.29-9.62 11.646 3.301-7.798 7.267-16.828 8.687-19.34zM7.343 18.188c.025-.272.05-.57.077-.881.09-1.127.204-2.41.562-3.304.32-.816.678-.958 1.216-.92.32.014.844.04.882 1.542.013.363.026.816.051 1.348.039 1.075.09 2.396.09 3.704a765.718 765.718 0 0 0-3.85 9.004c.383-4.25.844-9.263.972-10.493zm35.05 43.94c-.153.622-1.42.713-2.443.687-1.931-.052-4.515-.583-7.24-1.14-2.495-.505-5.066-1.036-7.42-1.257l-1.701-.155c-6.345-.544-12.332-1.05-15.76-7.617-1.714-3.29-2.239-7.047-1.56-11.154.537-3.238 1.867-6.62 3.645-9.249 3.441-5.104 14.75-18.045 18.472-22.307 1.51-1.736 2.456-2.306 2.98-2.474a1.23 1.23 0 0 1 .346-.065c.18 0 .333.065.525.22.422.337.473 1.555-.64 3.951-.69 1.477-3.582 6.736-5.705 10.57-.857 1.555-1.6 2.902-2.124 3.861l-.32.596c-3.454 1.982-5.705 4.288-5.884 4.47l-.985 1.023 2.008 1.994.985-1.023c.077-.078 7.458-7.617 15.67-6.4 3.902.584 5.732 2.877 6.576 4.703.921 1.995.844 3.73.64 4.21-1.126.713-1.753.402-3.57-1.01-1.087-.855-2.315-1.814-3.94-2.241-2.353-.635-4.963-.233-7.138 1.1-2.097 1.283-3.594 3.317-4.106 5.584-.486 2.137-.716 5.376.883 8.653 1.637 3.317 4.771 5.856 9.325 7.54 2.827 1.05 5.105 2.24 6.601 3.472 1.522 1.204 2.15 2.383 1.88 3.458zm47.678-27.41v-.079c-.052-.595-1.318-14.56-1.561-16.775-.026-.246-.051-.531-.077-.816-.102-1.27-.243-2.837-.755-4.133-.729-1.84-2.136-2.798-3.965-2.707-1.932.104-3.185 1.386-3.48 3.498-1.42-3.174-2.66-5.817-3.364-7.048-.371-.647-.96-1.606-1.791-2.396-1.28-1.192-2.75-1.58-4.17-1.088-.921.324-1.638.997-2.047 1.93-.537 1.23-.589 2.928-.115 5.182-.78-.894-1.446-1.659-1.97-2.254-1.126-1.283-4.541-5.195-7.701-2.669-1.74 1.4-1.791 3.886-.166 7.397.729 1.567 3.543 6.658 5.794 10.752.218.388.423.751.614 1.114-2.404-.803-5.104-1.23-7.918-.803-2.725.401-4.989 1.528-6.729 3.355a11.221 11.221 0 0 0-2.788 5.285c-.423 1.892-.41 4.43 1.023 5.39.985.66 1.893.919 2.725.919 1.714 0 3.121-1.101 4.247-1.97.92-.712 1.867-1.463 2.942-1.748 1.625-.44 3.428-.142 4.963.79 1.446.894 2.482 2.267 2.827 3.77.755 3.368.678 9.508-8.43 12.876-2.174.804-5.219 2.138-7.406 3.938-3.02 2.475-3.198 4.845-2.815 6.4.474 1.891 2.124 2.85 4.9 2.85h.345c2.175-.065 4.874-.61 7.727-1.192 2.417-.492 4.925-1.01 7.125-1.218a67.39 67.39 0 0 1 1.676-.142c6.498-.557 13.867-1.18 18.011-9.133a19.427 19.427 0 0 0 1.868-5.57c.064-.13.115-.285.128-.44.614-4.95.345-12.929.333-13.266zM82.932 15.92c.026-.531.039-.985.052-1.348.025-1.49.562-1.515.882-1.541.538-.026.883.116 1.216.92.358.906.473 2.176.562 3.303.026.31.052.596.077.88.128 1.232.589 6.245.985 10.468a765.717 765.717 0 0 0-3.85-9.003c-.026-1.27.025-2.604.076-3.68zm-11.5-9.664c.115-.26.243-.35.41-.402.972-.35 2.034 1.23 2.584 2.203 1.42 2.513 5.372 11.542 8.686 19.34-2.61-3.355-6.294-7.76-9.62-11.646-.921-2.254-2.904-7.59-2.06-9.495zm13.79 46.363c-3.428 6.58-9.415 7.086-15.76 7.617-.575.052-1.138.09-1.701.155-2.354.22-4.925.752-7.42 1.257-2.724.557-5.309 1.088-7.24 1.14-1.036.026-2.29-.065-2.444-.687-.268-1.088.359-2.254 1.855-3.484 1.497-1.231 3.774-2.423 6.601-3.472 4.554-1.684 7.688-4.223 9.326-7.54 1.612-3.277 1.369-6.502.882-8.653-.511-2.254-2.008-4.288-4.106-5.583-2.175-1.334-4.771-1.736-7.138-1.101-1.625.44-2.853 1.399-3.94 2.241-1.817 1.412-2.443 1.723-3.569 1.01-.205-.479-.281-2.215.64-4.21.844-1.826 2.686-4.12 6.575-4.702 8.212-1.218 15.606 6.322 15.67 6.4l.985 1.023 2.009-1.995-.985-1.024c-.18-.181-2.43-2.474-5.885-4.469l-.32-.596a1515.3 1515.3 0 0 0-2.123-3.86c-2.124-3.835-5.015-9.094-5.705-10.57-1.113-2.397-1.062-3.615-.64-3.952.192-.155.345-.22.524-.22.103 0 .218.026.346.065.524.168 1.458.738 2.98 2.474 3.71 4.249 15.019 17.19 18.473 22.307 1.778 2.643 3.108 6.01 3.645 9.25.704 4.132.18 7.876-1.535 11.179z" fill="#7300FF"/></g></svg>