<svg width="53" height="68" viewBox="0 0 53 68" xmlns="http://www.w3.org/2000/svg"><title>Springster_Stickers_Hands_OK_Mint</title><g fill="none"><path d="M29.636 67.885c-2.38 0-4.813-.41-7.233-1.217-3.072-1.037-6.234-2.92-9.127-5.455-2.868-2.51-5.275-5.468-6.965-8.567-.038-.077-4.007-7.44-1.574-12.46.192-.41.435-.795.691-1.14-.82-1.921-.73-4.303.346-6.75 1.229-2.83 3.661-5.57 6.657-7.542 1.946-1.28 4.967-2.779 8.782-3.099-.41-.628-1.204-1.87-1.204-1.87-1.28-1.985-2.368-3.7-3.008-4.674-2.381-3.65-2.19-7.312.512-9.81 1.216-1.113 2.727-1.715 4.366-1.715 1.318 0 2.662.384 3.968 1.114A6.405 6.405 0 0 1 29.214.78c.96-.46 1.959-.704 2.957-.704.717 0 1.421.128 2.1.358 2.688.96 4.084 3.42 4.903 5.187.013.013.474 1.024 1.229 2.676a6.037 6.037 0 0 1 2.714-.896c.218-.013.422-.026.64-.026 2.688 0 4.878 1.511 6.004 4.137.679 1.588.922 3.393 1.152 5.148l.013.076c.026.205.051.423.09.628.294 2.215 1.434 15.073 1.574 16.712.116 1.037.91 8.695-.307 13.856l-.077.294c-.896 4.226-2.509 7.85-4.685 10.463-5.019 6.019-11.19 9.195-17.885 9.195zM17.77 41.299c.32.423.666.871.999 1.281 1.1 1.332 2.368 2.113 3.584 2.203h.192c.768 0 1.498-.32 2.177-.948 1.1-1.024 1.229-2.817.281-3.906-.653-.755-1.754-1.23-2.855-1.23-.678 0-1.305.18-1.78.513-.204.14-.473.346-.729.538-.576.423-1.242.922-1.997 1.409.038.025.09.076.128.14zM1.92 31.605a1.423 1.423 0 0 0 1.856-.73 21.95 21.95 0 0 1 7.054-8.81 1.41 1.41 0 0 0-1.677-2.267 24.786 24.786 0 0 0-7.962 9.95 1.418 1.418 0 0 0 .73 1.857zm6.85 29.07c-4.93-3.983-5.838-9.233-5.851-9.31a1.411 1.411 0 0 0-1.6-1.178A1.41 1.41 0 0 0 .14 51.8c.038.256 1.037 6.352 6.862 11.065a1.419 1.419 0 0 0 1.984-.218 1.416 1.416 0 0 0-.218-1.972z" fill="#A1EDD1"/><path d="M49.761 34.359c-.077-.82-1.267-14.42-1.562-16.623a13.708 13.708 0 0 1-.09-.717c-.217-1.639-.409-3.176-.947-4.405-.947-2.19-2.586-2.523-3.815-2.408-2.163.192-3.06 2.126-3.43 3.817A957.624 957.624 0 0 0 36.601 6.8c-.96-2.075-1.997-3.253-3.29-3.714-.91-.32-1.908-.243-2.88.218-1.652.807-2.37 2.472-2.126 4.981.077.833.269 1.793.55 2.907-1.446-1.51-2.355-2.458-2.393-2.484-2.548-2.51-5.25-3.022-7.067-1.357-2.125 1.959-1.203 4.443-.064 6.198.64.986 1.754 2.702 3.034 4.7 1.357 2.1 2.893 4.507 4.25 6.595a18.862 18.862 0 0 0-2.867-.436c-4.29-.294-7.694 1.294-9.794 2.677-2.547 1.677-4.596 3.982-5.62 6.313-1.024 2.356-.845 4.431.512 5.712.141.14.307.281.5.41-.922.32-1.64.96-2.075 1.87-1.51 3.124.807 8.592 1.511 9.885C11.906 57.012 17.743 62.11 23.3 63.98c2.137.717 4.263 1.076 6.336 1.076 5.8 0 11.215-2.78 15.683-8.17 1.907-2.306 3.354-5.622 4.135-9.413.025-.064.051-.128.064-.192 1.14-4.802.307-12.37.243-12.921zM42.643 14.79c.128-.64.41-1.716.96-1.767.397-.039.666 0 .986.717.371.858.55 2.215.73 3.65.025.243.064.486.102.73.167 1.203.628 6.223 1.012 10.41a931.929 931.929 0 0 0-4.033-9.09c-.09-1.909.064-3.701.243-4.649zM31.672 5.852c.422-.205.614-.128.704-.102.282.102.883.525 1.677 2.241.051.128 4.327 9.348 7.873 17.352a468.79 468.79 0 0 0-8.436-9.233c-1.677-4.341-3.303-9.528-1.818-10.258zm11.483 49.252c-2.65 3.202-5.645 5.353-8.897 6.403-3.213 1.038-6.593.986-10.062-.179-4.93-1.652-10.127-6.224-12.943-11.384-.896-1.64-2.215-5.712-1.447-7.3.115-.243.282-.423.704-.5.026 0 .064-.012.09-.012.717 0 1.715 1.306 2.676 2.574.358.474.73.96 1.126 1.447 2.1 2.548 4.788 4.047 7.566 4.239 2.407.153 4.686-.679 6.58-2.446a8.5 8.5 0 0 0 2.714-5.712 8.36 8.36 0 0 0-2.01-6.019c-1.433-1.652-3.482-2.74-5.773-3.06-2.317-.333-4.57.18-6.35 1.421-.269.192-.55.397-.858.628-2.214 1.639-4.288 3.01-5.479 1.882-.422-.397-.371-1.37.14-2.535.795-1.819 2.51-3.727 4.584-5.097 1.741-1.14 4.545-2.459 8.052-2.216 4.046.27 7.413 2.024 10.024 5.2 1.997 2.433 2.791 4.84 2.791 4.866l2.688-.858c-.038-.115-.921-2.869-3.226-5.712-1.357-1.664-2.918-3.022-4.647-4.046-1.574-2.344-4.263-6.544-6.452-9.963a729.728 729.728 0 0 0-3.047-4.726c-1.19-1.831-.691-2.292-.384-2.574.666-.614 2.1.23 3.175 1.28.487.5 14.914 15.42 21.174 23.385 1.293 1.639 1.882 5.43 1.498 9.63-.41 4.61-1.907 8.862-4.007 11.384zM12.994 40.185c.32-.077.666-.179 1.011-.32 1.473-.576 2.842-1.588 3.943-2.407.282-.218.564-.41.794-.577 2.484-1.728 6.324-1.19 8.372 1.179 1.946 2.24 1.729 5.75-.486 7.824-1.306 1.217-2.855 1.806-4.48 1.69-1.998-.128-3.982-1.28-5.582-3.214-.372-.448-.717-.91-1.063-1.357-.768-1.05-1.574-2.1-2.509-2.818z" fill="#7300FF"/></g></svg>