<svg width="55" height="72" viewBox="0 0 55 72" xmlns="http://www.w3.org/2000/svg"><title>Springster_Stickers_Hands_Peace_Sunny_Yellow</title><g fill="none"><path d="M30.79 71.898c-.334 0-.669-.013-1.003-.026-3.945-.192-7.697-1.496-10.858-3.785-6.284-4.566-9.625-11.536-11.322-16.6-.783-2.34-1.143-3.76-1.22-4.08-1.26-4.885-.913-8.76 1.015-11.535 1.066-1.535 2.609-2.647 4.446-3.248.373-.96.977-2.136 1.992-3.249 1.812-1.995 4.253-3.056 7.068-3.082h.077c.115 0 .231 0 .347.013l-.836-12.955-.012-.23c-.052-.793-.155-2.468.36-4.143.745-2.43 2.505-4.067 4.985-4.617.27-.064.72-.128 1.285-.128a6.66 6.66 0 0 1 3.624 1.074c1.89 1.215 3.123 3.261 3.65 6.062.116.601.552 2.941 1.105 5.934a1285.23 1285.23 0 0 1 1.067-5.128c.938-4.642 3.585-7.34 7.26-7.392H44c1.568 0 3.213.69 4.382 1.829 1.683 1.65 2.454 4.08 2.287 7.225-.051 1.1-.488 8.658-1.22 19.452l-.013.102c-.167 2.494-.36 5.256-.489 7.213l.116.115c1.195 1.164 2.789 3.133 3.624 5.934.95 3.184.745 6.663-.63 10.333-2.069 5.55-6.065 10-11.27 12.546-3.148 1.547-6.618 2.366-9.997 2.366zM52.25 2.507C50.567.806 48.343-.051 46.018.09a1.404 1.404 0 1 0 .167 2.8c1.927-.115 3.264.806 4.047 1.586a6.693 6.693 0 0 1 1.877 5.128c-.065.78.527 1.445 1.31 1.51h.103c.733 0 1.35-.563 1.414-1.305.193-2.673-.81-5.41-2.686-7.302zM6.322 33.046c.553-.55.566-1.433.013-1.982a1.424 1.424 0 0 0-2.004-.013c-.116.115-2.789 2.762-3.753 6.202-.99 3.543-.18 7.712-.141 7.89a1.414 1.414 0 0 0 2.776-.536c-.013-.039-.72-3.709.09-6.586.77-2.737 2.994-4.962 3.02-4.975z" fill="#FFFC78"/><path d="M47.084 42.727a9.978 9.978 0 0 0-1.054-.895c.116-1.868.36-5.474.591-8.722.733-10.794 1.17-18.352 1.221-19.4.129-2.315-.36-4.016-1.439-5.078-.822-.805-1.85-1.048-2.506-1.023-2.917.026-4.086 2.8-4.562 5.128-.154.78-2.236 10.743-4.022 19.17-1.17-6.445-3.418-18.53-3.688-20.014-.386-2.02-1.195-3.44-2.403-4.22-1.285-.818-2.519-.6-2.75-.55-3.457.768-3.226 4.464-3.136 5.845l.013.217 1.105 17.06c-.9-.665-2.043-1.112-3.43-1.112h-.052c-4.6.038-6.451 3.785-6.798 5.754-.013.039-.013.09-.013.128-1.902.218-3.418 1.075-4.395 2.481-1.452 2.072-1.645 5.18-.59 9.246.038.18.372 1.522 1.156 3.875 1.568 4.668 4.626 11.088 10.306 15.206a17.347 17.347 0 0 0 9.33 3.248c.282.013.578.026.86.026 2.956 0 5.963-.716 8.751-2.072 4.55-2.225 8.045-6.126 9.857-10.998 2.596-7.047-.36-11.356-2.352-13.3zm-20.02-32.88h-.014.013zm-.027.013c.013 0 .013 0 0 0l-.025.013.038-.013c.591-.064 1.388.563 1.76 2.545.322 1.726 3.303 17.802 4.164 22.636l.219 1.202 4.086-.153.232-1.075c1.889-8.837 4.394-20.884 4.574-21.74.386-1.906 1.003-2.878 1.825-2.878l-.013.013.09-.013a.74.74 0 0 1 .45.256c.257.268.668 1.01.565 2.89-.051 1.062-.475 8.581-1.22 19.35-.18 2.698-.373 5.46-.502 7.404-3.007-1.19-6.887-1.407-11.706-.69-.142.025-1.388.217-2.609.895-.09.05-.167.102-.244.14-.219-1.624-.72-3.53-1.092-4.847L26.15 12.98l-.013-.217c-.129-1.982.103-2.724.9-2.903zM20.96 31.933h.026c2.583 0 3.405 2.954 3.444 3.082l.025.09c.013.038 1.285 3.951 1.53 6.445.012.154.025.32.051.473.231 2.11.026 2.571-.501 2.801-.617.269-1.414-.563-1.735-.946l-.026-.026a29.605 29.605 0 0 0-.963-1.892c-.874-1.586-1.787-2.93-1.967-3.21-.257-.435-1.567-2.558-3.893-3.415a4.94 4.94 0 0 1 .745-1.7c.745-1.14 1.825-1.689 3.264-1.702zM46.763 55.03c-1.568 4.195-4.562 7.546-8.456 9.451-5.513 2.699-11.514 2.34-16.037-.933-5.076-3.683-7.865-9.553-9.291-13.825-.784-2.327-1.08-3.619-1.092-3.632l-.013-.038c-.823-3.197-.771-5.614.18-6.957.527-.755 1.362-1.19 2.48-1.305.964-.102 1.876.243 2.737.998.72.652 1.118 1.368 1.13 1.368l.04.064.038.064c.013.013.964 1.407 1.863 3.031 1.645 2.954 1.542 3.786 1.542 3.811-.102.652-.398.755-.514.806-.385.14-.912.025-1.156-.18-3.046-2.519-4.78-4.744-4.832-4.808a1.43 1.43 0 0 0-1.979-.268 1.414 1.414 0 0 0-.27 1.97c.077.101 1.94 2.506 5.269 5.255 1.066.883 2.647 1.138 3.958.64 1.22-.46 2.043-1.522 2.3-2.916.206.038.424.064.63.064.475 0 .964-.102 1.426-.307a5.02 5.02 0 0 0 .591-.32c.347.422.81.78 1.375 1.087.977.512 2.198.831 3.74 1.228 1.272.32 2.711.69 4.343 1.253a1.412 1.412 0 0 0 1.8-.87 1.397 1.397 0 0 0-.875-1.79c-1.747-.6-3.315-1.01-4.574-1.33-2.956-.754-3.714-1.036-3.843-1.893-.077-.537-.012-1.176 1.028-1.764.797-.46 1.697-.601 1.697-.601 6.258-.934 10.537-.167 13.107 2.34 1.838 1.803 3.624 5.039 1.658 10.307z" fill="#7300FF"/></g></svg>