<svg width="149" height="10" viewBox="0 0 149 10" xmlns="http://www.w3.org/2000/svg"><title>zig-zag-underline</title><path d="M94.307 2.935c-7.746.306-14.526.617-21.196.983-32.523 1.784-60.92 3.031-63.837 2.957-1.328-.033-1.385 1.957-.057 2l.836.025 2.39.067c2.593.069 5.534.138 8.768.202 15.804.315 32.193.407 47.508.14 14.907-.259 27.63-.845 37.503-1.814a1 1 0 1 0-.196-1.99c-9.809.963-22.484 1.547-37.341 1.805-8.114.14-16.532.181-25.005.14 8.933-.437 19.017-.958 29.54-1.535 6.659-.366 13.43-.676 21.167-.982a3167.013 3167.013 0 0 1 12.21-.458l2.334-.085c1.88-.068 3.233-.118 4.55-.167 18.176-.676 27.166-1.217 34.162-2.233 1.244-.181 1.086-2.023-.17-1.99-25.029.673-41.284.814-72.885.821C66.066.823 62.32.827 57.64.843c-20.977.072-37.4.398-56.684 1.24a1 1 0 0 0 .088 1.999c19.254-.842 35.65-1.167 56.603-1.239 4.677-.016 8.422-.02 16.942-.022 9.03-.002 16.807-.015 23.895-.048-1.45.055-2.814.108-4.177.162z" fill="#7300FF" class="icon"/></svg>